<?xml version="1.0" encoding="UTF-8" standalone="no"?>
<!-- Created with Inkscape (http://www.inkscape.org/) -->

<svg
   xmlns:dc="http://purl.org/dc/elements/1.1/"
   xmlns:cc="http://creativecommons.org/ns#"
   xmlns:rdf="http://www.w3.org/1999/02/22-rdf-syntax-ns#"
   xmlns:svg="http://www.w3.org/2000/svg"
   xmlns="http://www.w3.org/2000/svg"
   xmlns:sodipodi="http://sodipodi.sourceforge.net/DTD/sodipodi-0.dtd"
   xmlns:inkscape="http://www.inkscape.org/namespaces/inkscape"
   version="1.1"
   id="svg1081"
   xml:space="preserve"
   width="800"
   height="800"
   viewBox="0 0 800 800"
   sodipodi:docname="abstract-vector-publicdomainvectors.org [Converted].svg"
   inkscape:version="0.92.4 (5da689c313, 2019-01-14)"><metadata
     id="metadata1087"><rdf:RDF><cc:Work
         rdf:about=""><dc:format>image/svg+xml</dc:format><dc:type
           rdf:resource="http://purl.org/dc/dcmitype/StillImage" /><dc:title></dc:title></cc:Work></rdf:RDF></metadata><defs
     id="defs1085"><clipPath
       clipPathUnits="userSpaceOnUse"
       id="clipPath1097"><path
         d="M 0,600 H 600 V 0 H 0 Z"
         id="path1095"
         inkscape:connector-curvature="0" /></clipPath><linearGradient
       x1="0"
       y1="0"
       x2="1"
       y2="0"
       gradientUnits="userSpaceOnUse"
       gradientTransform="matrix(599.52344,0,0,-599.52344,0,300)"
       spreadMethod="pad"
       id="linearGradient1117"><stop
         style="stop-opacity:1;stop-color:#5ccaf4"
         offset="0"
         id="stop1111" /><stop
         style="stop-opacity:1;stop-color:#05aeef"
         offset="0.5"
         id="stop1113" /><stop
         style="stop-opacity:1;stop-color:#0995dd"
         offset="1"
         id="stop1115" /></linearGradient></defs><sodipodi:namedview
     pagecolor="#ffffff"
     bordercolor="#666666"
     borderopacity="1"
     objecttolerance="10"
     gridtolerance="10"
     guidetolerance="10"
     inkscape:pageopacity="0"
     inkscape:pageshadow="2"
     inkscape:window-width="1920"
     inkscape:window-height="1018"
     id="namedview1083"
     showgrid="false"
     inkscape:zoom="1.06125"
     inkscape:cx="400"
     inkscape:cy="400"
     inkscape:window-x="-8"
     inkscape:window-y="-8"
     inkscape:window-maximized="1"
     inkscape:current-layer="g1089" /><g
     id="g1089"
     inkscape:groupmode="layer"
     inkscape:label="abstract-vector-publicdomainvectors.org [Converted]"
     transform="matrix(1.3333333,0,0,-1.3333333,0,800)"><g
       id="g1091"><g
         id="g1093"
         clip-path="url(#clipPath1097)"><g
           id="g1099"><g
             id="g1101"><g
               id="g1107"><g
                 id="g1109"><path
                   d="M 599.523,0 H 0 v 600 h 599.523 z"
                   style="fill:url(#linearGradient1117);stroke:none"
                   id="path1119"
                   inkscape:connector-curvature="0" /></g></g></g></g><path
           d="m 5.285,346.547 h 17.314 v 14.837 H 5.285 Z m 0,-17.804 H 22.599 V 343.58 H 5.285 Z m 0,-17.804 h 17.314 v 14.836 H 5.285 Z m 0,-17.805 h 17.314 v 14.837 H 5.285 Z m 0,-17.804 h 17.314 v 14.837 H 5.285 Z m 0,-17.805 h 17.314 v 14.838 H 5.285 Z m 20.778,89.022 h 17.314 v 14.837 H 26.063 Z m 0,-17.804 H 43.377 V 343.58 H 26.063 Z m 0,-17.804 h 17.314 v 14.836 H 26.063 Z m 0,-17.805 h 17.314 v 14.837 H 26.063 Z m 0,-17.804 h 17.314 v 14.837 H 26.063 Z m 0,-17.805 h 17.314 v 14.838 H 26.063 Z M 46.84,361.384 v -14.837 h 17.314 v 14.837 z m 0,-17.804 v -14.837 h 17.314 v 14.837 z m 0,-17.805 v -14.836 h 17.314 v 14.836 z m 0,-17.804 v -14.837 h 17.314 v 14.837 z m 0,-17.804 V 275.33 h 17.314 v 14.837 z m 0,-17.804 v -14.838 h 17.314 v 14.838 z m 20.777,74.184 h 17.314 v 14.837 H 67.617 Z m 0,-17.804 H 84.931 V 343.58 H 67.617 Z m 0,-17.804 h 17.314 v 14.836 H 67.617 Z m 0,-17.805 h 17.314 v 14.837 H 67.617 Z m 0,-17.804 h 17.314 v 14.837 H 67.617 Z m 0,-17.805 h 17.314 v 14.838 H 67.617 Z m 20.777,89.022 h 17.314 v 14.837 H 88.394 Z m 0,-17.804 h 17.314 V 343.58 H 88.394 Z m 0,-17.804 h 17.314 v 14.836 H 88.394 Z m 0,-17.805 h 17.314 v 14.837 H 88.394 Z m 0,-17.804 h 17.314 v 14.837 H 88.394 Z m 0,-17.805 h 17.314 v 14.838 H 88.394 Z m 20.777,89.022 h 17.314 v 14.837 h -17.314 z m 0,-17.804 h 17.314 v 14.837 h -17.314 z m 0,-17.804 h 17.314 v 14.836 h -17.314 z m 0,-17.805 h 17.314 v 14.837 h -17.314 z m 0,-17.804 h 17.314 v 14.837 h -17.314 z m 0,-17.805 h 17.314 v 14.838 h -17.314 z m 20.777,103.859 0.001,-14.837 h 17.314 v 14.837 z m 0,-17.804 0.001,-14.837 h 17.314 v 14.837 z m 0,-17.805 0.001,-14.836 h 17.314 v 14.836 z m 0,-17.804 0.001,-14.837 h 17.314 v 14.837 z m 0,-17.804 0.001,-14.837 h 17.314 v 14.837 z m 0,-17.804 0.001,-14.838 h 17.314 v 14.838 z m 20.778,74.184 h 17.314 v 14.837 h -17.314 z m 0,-17.804 h 17.314 v 14.837 h -17.314 z m 0,-17.804 h 17.314 v 14.836 h -17.314 z m 0,-17.805 h 17.314 v 14.837 h -17.314 z m 0,-17.804 h 17.314 v 14.837 h -17.314 z m 0,-17.805 h 17.314 v 14.838 h -17.314 z m 20.776,89.022 h 17.314 v 14.837 h -17.314 z m 0,-17.804 h 17.314 v 14.837 h -17.314 z m 0,-17.804 h 17.314 v 14.836 h -17.314 z m 0,-17.805 h 17.314 v 14.837 h -17.314 z m 0,-17.804 h 17.314 v 14.837 h -17.314 z m 0,-17.805 h 17.314 v 14.838 h -17.314 z m 20.778,89.022 h 17.314 v 14.837 H 192.28 Z m 0,-17.804 h 17.314 V 343.58 H 192.28 Z m 0,-2.968 0.001,-14.836 h 17.313 v 14.836 z m 0,-32.642 h 17.314 V 307.97 H 192.28 Z m 0,-2.969 0.001,-14.837 h 17.313 v 14.837 z m 0,-17.805 0.001,-14.837 h 17.313 v 14.837 z m 20.781,74.196 h 17.314 v 14.837 h -17.314 z m 0.001,-17.806 h 17.314 v 14.837 h -17.314 z m 0,-17.811 h 17.314 v 14.837 h -17.314 z m 10e-4,-17.815 h 17.314 v 14.836 h -17.314 z m -10e-4,-17.816 h 17.314 v 14.837 h -17.314 z m 0,-17.814 h 17.314 v 14.838 h -17.314 z m 20.798,89.106 h 17.314 v 14.837 H 233.86 Z m 0.007,-17.819 h 17.314 v 14.837 h -17.314 z m 0.003,-17.841 h 17.314 v 14.837 H 233.87 Z m 0,-17.856 h 17.314 V 307.92 H 233.87 Z m -0.003,-17.86 h 17.314 v 14.838 h -17.314 z m -0.004,-17.846 h 17.314 v 14.836 h -17.314 z m 20.864,89.373 h 17.314 v 14.837 h -17.314 z m 0.023,-17.862 h 17.314 v 14.836 H 254.75 Z m 0.012,-17.928 h 17.314 v 14.837 h -17.314 z m -0.002,-17.972 h 17.314 v 14.837 H 254.76 Z m -0.011,-17.983 h 17.314 v 14.838 h -17.314 z m -0.021,-17.948 h 17.314 v 14.837 h -17.314 z m 21.022,90.084 h 17.314 v 14.837 H 275.75 Z m 0.06,-17.968 h 17.314 V 344.01 H 275.81 Z m 0.03,-18.126 h 17.314 v 14.837 H 275.84 Z m -0.005,-18.24 h 17.314 v 14.837 h -17.314 z m -0.037,-18.267 h 17.314 v 14.837 h -17.314 z m -0.058,-18.186 h 17.314 V 271.19 H 275.74 Z m 21.339,91.654 h 17.314 v 14.837 h -17.314 z m 0.137,-18.177 h 17.315 v 14.837 h -17.315 z m 0.063,-18.534 h 17.314 v 14.836 h -17.314 z m -0.022,-18.793 h 17.315 v 14.835 h -17.315 z m -0.095,-18.858 h 17.313 v 14.837 h -17.313 z m -0.145,-18.683 h 17.314 V 269.8 h -17.314 z m 21.925,94.791 h 17.314 v 14.837 h -17.314 z m 0.277,-18.551 h 17.314 v 14.837 h -17.314 z m 0.106,-19.316 h 17.314 v 14.837 h -17.314 z m -0.08,-19.882 h 17.314 v 14.837 h -17.314 z m -0.231,-20.019 h 17.314 v 14.837 h -17.314 z m -0.318,-19.641 h 17.314 v 14.837 h -17.314 z m 22.977,100.716 h 17.313 v 14.837 h -17.313 z m 0.502,-19.184 h 17.313 v 14.837 h -17.313 z m 0.121,-20.797 h 17.314 v 14.837 h -17.314 z m -0.269,-22.011 h 17.314 v 14.837 h -17.314 z m -0.537,-22.255 h 17.313 v 14.837 H 341.49 Z m -0.638,-21.384 h 17.314 v 14.838 h -17.314 z m 24.88,111.62 h 17.314 v 14.836 h -17.314 z m 0.812,-20.27 h 17.314 v 14.837 H 366.544 Z M 366.5,315.061 h 17.314 v 14.837 H 366.5 Z m -0.821,-26.231 h 17.313 v 14.837 h -17.313 z m -1.187,-26.431 h 17.314 v 14.837 h -17.314 z m -1.153,-24.279 h 17.314 v 14.837 h -17.314 z m 28.407,131.35 h 17.314 v 14.838 h -17.314 z m 1.076,-22.365 h 17.314 v 14.837 h -17.314 z m -0.862,-29.824 h 17.313 v 14.837 H 391.96 Z m -2.22,-34.485 h 17.314 v 14.838 H 389.74 Z m -2.32,-33.549 h 17.314 v 14.837 H 387.42 Z m -1.717,-28.291 h 17.314 v 14.837 h -17.314 z m 34.777,165.865 h 17.314 v 14.837 H 420.48 Z m 0.778,-27.116 h 17.313 v 14.836 h -17.313 z m -3.43,-42.704 h 17.314 v 14.837 h -17.314 z m -4.931,-48.81 h 17.314 v 14.838 h -17.314 z m -3.524,-43.276 h 17.314 v 14.838 h -17.314 z m -1.736,-32.426 h 17.314 v 14.836 h -17.314 z m 45.13,221.739 h 17.314 v 14.837 h -17.314 z m -1.561,-38.752 h 17.314 v 14.837 h -17.314 z m -9.114,-66.496 h 17.314 v 14.837 h -17.314 z m -8.116,-67.291 h 17.313 v 14.837 h -17.313 z m -3.431,-52.954 h 17.314 v 14.838 h -17.314 z m -0.584,-36.433 h 17.314 v 14.837 h -17.314 z m 59.352,302.681 h 17.314 v 14.837 h -17.314 z m -8.719,-65.005 h 17.314 v 14.837 H 480.594 Z M 463.4,291.691 h 17.314 v 14.836 H 463.4 Z m -9.512,-82.913 h 17.314 v 14.837 h -17.314 z m -1.31,-62.18 h 17.314 v 14.838 h -17.314 z m 1.445,-45.002 h 17.314 v 14.837 H 454.023 Z M 530.6,511.99 h 17.314 v 14.837 H 530.6 Z M 507.162,399.065 h 17.314 v 14.837 H 507.162 Z M 483.16,274.041 h 17.314 v 14.838 H 483.16 Z m -8.869,-92.083 h 17.314 v 14.837 h -17.314 z m 1.461,-73.988 h 17.314 v 14.837 h -17.314 z m 3.899,-68.097 h 17.314 V 54.71 h -17.314 z m 96.241,544.425 h 17.313 v 14.837 H 575.892 Z M 530.831,405.041 h 17.314 v 14.837 H 530.831 Z M 503.566,267.987 h 17.314 v 14.838 h -17.314 z m -8.462,-95.234 h 17.314 v 14.837 h -17.314 z m 2.619,-80.674 h 17.314 v 14.836 h -17.314 z m 23.312,-93.701 h -17.314 v 14.837 h 17.314 z"
           style="fill:#ffffff;fill-opacity:1;fill-rule:nonzero;stroke:none"
           id="path1121"
           inkscape:connector-curvature="0" /></g></g></g></svg>