<?xml version="1.0" encoding="UTF-8" standalone="no"?>
<!-- Created with Inkscape (http://www.inkscape.org/) -->

<svg
   xmlns:dc="http://purl.org/dc/elements/1.1/"
   xmlns:cc="http://creativecommons.org/ns#"
   xmlns:rdf="http://www.w3.org/1999/02/22-rdf-syntax-ns#"
   xmlns:svg="http://www.w3.org/2000/svg"
   xmlns="http://www.w3.org/2000/svg"
   xmlns:sodipodi="http://sodipodi.sourceforge.net/DTD/sodipodi-0.dtd"
   xmlns:inkscape="http://www.inkscape.org/namespaces/inkscape"
   version="1.1"
   id="svg815"
   xml:space="preserve"
   width="880"
   height="880"
   viewBox="0 0 880 880"
   sodipodi:docname="1583350131bulls-head-freesvg.org.svg"
   inkscape:version="0.92.4 (5da689c313, 2019-01-14)"><metadata
     id="metadata821"><rdf:RDF><cc:Work
         rdf:about=""><dc:format>image/svg+xml</dc:format><dc:type
           rdf:resource="http://purl.org/dc/dcmitype/StillImage" /><dc:title /></cc:Work></rdf:RDF></metadata><defs
     id="defs819"><clipPath
       clipPathUnits="userSpaceOnUse"
       id="clipPath831"><path
         d="M 0,660 H 660 V 0 H 0 Z"
         id="path829"
         inkscape:connector-curvature="0" /></clipPath></defs><sodipodi:namedview
     pagecolor="#ffffff"
     bordercolor="#666666"
     borderopacity="1"
     objecttolerance="10"
     gridtolerance="10"
     guidetolerance="10"
     inkscape:pageopacity="0"
     inkscape:pageshadow="2"
     inkscape:window-width="1920"
     inkscape:window-height="1017"
     id="namedview817"
     showgrid="false"
     inkscape:zoom="0.96477273"
     inkscape:cx="250.83628"
     inkscape:cy="357.07892"
     inkscape:window-x="-8"
     inkscape:window-y="-8"
     inkscape:window-maximized="1"
     inkscape:current-layer="g823" /><g
     id="g823"
     inkscape:groupmode="layer"
     inkscape:label="bulls-head-freesvg.org"
     transform="matrix(1.3333333,0,0,-1.3333333,0,880)"><g
       id="g1071"><path
         inkscape:connector-curvature="0"
         id="path925"
         style="fill:#231f20;fill-opacity:1;fill-rule:evenodd;stroke:none"
         d="m 404.562,210.232 c -20.358,-4.709 -45.114,-7.468 -71.817,-7.468 -26.703,0 -51.46,2.759 -71.816,7.468 1.892,3.057 4.127,5.983 6.702,8.766 10.682,11.557 24.229,17.482 39.967,17.482 h 50.294 c 15.74,0 29.287,-5.925 39.969,-17.484 2.575,-2.785 4.809,-5.707 6.701,-8.764 M 253.336,177.783 c -0.735,9.356 0.69,18.1 4.226,26.082 6.889,-4.82 14.324,-8.994 22.203,-12.426 -3.411,-3.71 -5.493,-8.66 -5.493,-14.095 0,-11.508 9.33,-20.836 20.837,-20.836 11.507,0 20.836,9.328 20.836,20.836 0,1.461 -0.151,2.886 -0.437,4.263 5.636,-0.724 11.389,-1.099 17.237,-1.099 5.848,0 11.603,0.375 17.237,1.097 -0.286,-1.376 -0.437,-2.8 -0.437,-4.261 0,-11.508 9.329,-20.836 20.837,-20.836 11.507,0 20.836,9.328 20.836,20.836 0,5.435 -2.082,10.385 -5.491,14.094 7.878,3.433 15.313,7.607 22.201,12.427 3.536,-7.986 4.962,-16.73 4.226,-26.086 -0.539,-6.834 -2.133,-13.508 -4.926,-20.162 -4.373,-10.416 -13.674,-16.601 -24.973,-16.601 h -99.021 c -11.297,0 -20.599,6.185 -24.972,16.601 -2.793,6.656 -4.389,13.332 -4.926,20.166 m 35.14,126.653 c -27.365,-26.129 -45.476,-4.75 -58.451,42.983 7.977,-2.25 15.6,-5.139 22.744,-8.893 -2.241,-3.826 -3.566,-8.562 -3.566,-13.69 0,-11.689 6.883,-21.34 15.799,-22.82 -1.273,1.714 -2.054,4.025 -2.054,6.568 0,5.301 3.395,9.599 7.582,9.599 4.188,0 7.582,-4.298 7.582,-9.599 0,-0.9 -0.098,-1.771 -0.281,-2.598 2.043,1.817 3.778,4.151 5.084,6.853 1.949,-2.628 3.805,-5.426 5.561,-8.403 m 88.538,0 c 1.756,2.977 3.612,5.775 5.56,8.403 1.308,-2.702 3.042,-5.036 5.086,-6.853 -0.183,0.827 -0.281,1.698 -0.281,2.598 0,5.301 3.393,9.599 7.58,9.599 4.187,0 7.583,-4.298 7.583,-9.599 0,-2.543 -0.78,-4.854 -2.054,-6.568 8.916,1.48 15.799,11.131 15.799,22.82 0,5.128 -1.325,9.864 -3.564,13.69 7.141,3.754 14.764,6.643 22.742,8.893 -12.976,-47.733 -31.085,-69.112 -58.451,-42.983 m -3.709,20.293 c -8.073,52.799 56.509,30.763 67.419,48.435 2.618,-24.436 -55.637,-17.891 -67.419,-48.435 m -81.12,0 c -11.782,30.544 -70.036,23.999 -67.418,48.435 10.909,-17.672 75.491,4.364 67.418,-48.435 M 97.542,367.492 171.07,348.509 c -31.881,-24.594 -76.338,-24.594 -108.218,0 l -7.636,5.892 z m 470.405,0 42.327,-13.091 -7.636,-5.892 c -31.881,-24.594 -76.336,-24.594 -108.217,0 z M 321.078,470.225 244.019,451.939 c -18.896,1.452 -36.852,3.861 -53.123,7.184 -11.24,-5.668 -18.696,-15.614 -18.696,-26.938 0,-0.852 0.044,-1.696 0.127,-2.532 l -24.021,6.11 c -30.593,7.782 -78.325,24.36 -82.895,51.284 -3.113,18.338 14.86,35.821 33.745,48.668 -5.745,-7.537 -8.636,-15.973 -6.007,-24.925 3.894,-13.267 18.436,-22.982 37.465,-30.104 -23.033,14.827 -28.885,34.778 -6.343,59.192 3.879,4.199 5.08,9.772 3.267,15.193 -1.813,5.42 -6.119,9.15 -11.742,10.172 l -0.142,0.026 c -4.791,0.871 -9.253,-0.223 -13.093,-3.216 -84.722,-65.99 -72.795,-141.146 39.852,-180.512 l -42.203,0.12 -74.668,-22.242 5.673,-9.164 c 20.301,-32.794 56.123,-52.748 94.691,-52.748 20.264,0 39.769,5.511 56.664,15.497 l 3.638,-37.748 54.57,-54.733 -4.632,-34.277 c -2.175,-16.082 -0.344,-30.871 5.646,-45.139 7.157,-17.05 22.95,-27.55 41.442,-27.55 h 99.021 c 18.493,0 34.287,10.5 41.443,27.55 5.989,14.268 7.821,29.057 5.647,45.139 l -4.633,34.277 54.571,54.733 3.638,37.748 c 16.894,-9.986 36.399,-15.497 56.663,-15.497 38.568,0 74.391,19.954 94.691,52.748 l 5.672,9.164 -74.667,22.242 -42.203,-0.12 c 112.649,39.366 124.574,114.522 39.854,180.512 -3.843,2.993 -8.304,4.087 -13.096,3.216 l -0.141,-0.026 c -5.623,-1.022 -9.928,-4.752 -11.741,-10.172 -1.813,-5.421 -0.613,-10.994 3.266,-15.193 22.546,-24.416 16.69,-44.369 -6.35,-59.196 19.033,7.122 33.577,16.839 37.474,30.108 2.626,8.95 -0.263,17.385 -6.005,24.922 18.891,-12.853 36.852,-30.331 33.741,-48.665 -4.57,-26.924 -52.302,-43.502 -82.894,-51.284 l -24.693,-6.281 c 0.089,0.87 0.138,1.749 0.138,2.637 0,11.292 -7.414,21.214 -18.601,26.89 -16.121,-3.263 -33.88,-5.635 -52.556,-7.07 l -77.061,18.286 -5.1,-24.788 -6.567,-31.909 -6.565,31.909 z" /></g></g></svg>