<?xml version="1.0" encoding="UTF-8" standalone="no"?>
<!-- Created with Inkscape (http://www.inkscape.org/) -->

<svg
   xmlns:dc="http://purl.org/dc/elements/1.1/"
   xmlns:cc="http://creativecommons.org/ns#"
   xmlns:rdf="http://www.w3.org/1999/02/22-rdf-syntax-ns#"
   xmlns:svg="http://www.w3.org/2000/svg"
   xmlns="http://www.w3.org/2000/svg"
   xmlns:sodipodi="http://sodipodi.sourceforge.net/DTD/sodipodi-0.dtd"
   xmlns:inkscape="http://www.inkscape.org/namespaces/inkscape"
   version="1.1"
   id="svg815"
   xml:space="preserve"
   width="880"
   height="880"
   viewBox="0 0 880 880"
   sodipodi:docname="simple_bull.svg"
   inkscape:version="0.92.4 (5da689c313, 2019-01-14)"><metadata
     id="metadata821"><rdf:RDF><cc:Work
         rdf:about=""><dc:format>image/svg+xml</dc:format><dc:type
           rdf:resource="http://purl.org/dc/dcmitype/StillImage" /><dc:title></dc:title></cc:Work></rdf:RDF></metadata><defs
     id="defs819"><clipPath
       clipPathUnits="userSpaceOnUse"
       id="clipPath831"><path
         d="M 0,660 H 660 V 0 H 0 Z"
         id="path829"
         inkscape:connector-curvature="0" /></clipPath></defs><sodipodi:namedview
     pagecolor="#ffffff"
     bordercolor="#666666"
     borderopacity="1"
     objecttolerance="10"
     gridtolerance="10"
     guidetolerance="10"
     inkscape:pageopacity="0"
     inkscape:pageshadow="2"
     inkscape:window-width="1920"
     inkscape:window-height="1017"
     id="namedview817"
     showgrid="false"
     inkscape:zoom="0.96477273"
     inkscape:cx="250.83628"
     inkscape:cy="357.07892"
     inkscape:window-x="-8"
     inkscape:window-y="-8"
     inkscape:window-maximized="1"
     inkscape:current-layer="g823" /><g
     id="g823"
     inkscape:groupmode="layer"
     inkscape:label="bulls-head-freesvg.org"
     transform="matrix(1.3333333,0,0,-1.3333333,0,880)"><g
       id="g1071"><path
         inkscape:connector-curvature="0"
         id="path925"
         style="fill:#231f20;fill-opacity:1;fill-rule:evenodd;stroke:none"
         d="M 321.078,470.225 L 244.019,451.939 C 225.123,453.391 207.167,455.8 190.896,459.123 C 179.656,453.455 172.2,443.509 172.2,432.185 C 172.2,431.333 172.244,430.489 172.327,429.653 L 148.306,435.763 C 117.713,443.545 69.981,460.123 65.411,487.047 C 62.298,505.385 80.271,522.868 99.156,535.715 C 93.411,528.178 90.52,519.742 93.149,510.79 C 97.043,497.523 111.585,487.808 130.614,480.686 C 107.581,495.513 101.729,515.464 124.271,539.878 C 128.15,544.077 129.351,549.65 127.538,555.071 C 125.725,560.491 121.419,564.221 115.796,565.243 L 115.654,565.269 C 110.863,566.14 106.401,565.046 102.561,562.053 C 17.839,496.063 29.766,420.907 142.413,381.541 L 100.21,381.661 L 25.542,359.419 L 31.215,350.255 C 51.516,317.461 87.338,297.507 125.906,297.507 C 146.17,297.507 165.675,303.018 182.57,313.004 L 186.208,275.256 L 240.778,220.523 L 236.146,186.246 C 233.971,170.164 235.802,155.375 241.792,141.107 C 248.949,124.057 264.742,113.557 283.234,113.557 H 382.255 C 400.748,113.557 416.542,124.057 423.698,141.107 C 429.687,155.375 431.519,170.164 429.345,186.246 L 424.712,220.523 L 479.283,275.256 L 482.921,313.004 C 499.815,303.018 519.32,297.507 539.584,297.507 C 578.152,297.507 613.975,317.461 634.275,350.255 L 639.947,359.419 L 565.28,381.661 L 523.077,381.541 C 635.726,420.907 647.651,496.063 562.931,562.053 C 559.088,565.046 554.627,566.14 549.835,565.269 L 549.694,565.243 C 544.071,564.221 539.766,560.491 537.953,555.071 C 536.14,549.65 537.34,544.077 541.219,539.878 C 563.765,515.462 557.909,495.509 534.869,480.682 C 553.902,487.804 568.446,497.521 572.343,510.79 C 574.969,519.74 572.08,528.175 566.338,535.712 C 585.229,522.859 603.19,505.381 600.079,487.047 C 595.509,460.123 547.777,443.545 517.185,435.763 L 492.492,429.482 C 492.581,430.352 492.63,431.231 492.63,432.119 C 492.63,443.411 485.216,453.333 474.029,459.009 C 457.908,455.746 440.149,453.374 421.473,451.939 L 344.412,470.225 Z"
         sodipodi:nodetypes="cccscccccccccccccccscccccsscccccscccccccccccccccscccc" /></g></g></svg>